<?xml version="1.0" encoding="UTF-8" standalone="no"?>
<svg
   version="1.1"
   width="595.27557"
   height="841.88977"
   id="svg69"
   viewBox="0 0 595.27557 841.88977"
   sodipodidocname="MYaU (1).cdr"
   xmlnsinkscape="http://www.inkscape.org/namespaces/inkscape"
   xmlnssodipodi="http://sodipodi.sourceforge.net/DTD/sodipodi-0.dtd"
   xmlns="http://www.w3.org/2000/svg"
   xmlnssvg="http://www.w3.org/2000/svg">
  <defs
     id="defs73" />
  <sodipodiNamedview
     id="namedview71"
     pagecolor="#ffffff"
     bordercolor="#666666"
     borderopacity="1.0"
     inkscapepageshadow="2"
     inkscapepageopacity="0.0"
     inkscapepagecheckerboard="0" />
  <path
     d="m 349.4005,342.4222 c 1.1492,-4.3218 -14.2369,-19.2121 -20.3868,0.2527 -0.3795,-0.2872 -0.7587,-0.5583 -1.1378,-0.8142 -4.1593,-2.8082 -8.0965,-3.7092 -11.8884,-4.0961 -8.448,-0.8605 -15.5791,3.1837 -20.1551,9.2755 -2.2473,2.9917 -3.8747,6.4703 -4.7212,10.0735 -0.8635,3.6776 -0.9356,7.5467 -0.0526,11.2437 0.1982,0.8308 0.4431,1.6501 0.7348,2.454 -2.4949,2.5905 -5.1515,4.868 -7.8416,6.9385 -4.6315,-18.0027 -9.1078,-34.9907 0.0106,-37.149 1.1625,-4.5742 -18.0887,-15.2324 -23.9132,6.927 -0.381,1.4496 -0.6501,2.9493 -0.8256,4.4891 -3.5352,11.7472 -7.2318,19.3225 -10.7119,22.6441 -0.6825,0.6517 -1.0308,0.9823 -1.0326,0.9819 -0.3421,-0.0629 -0.9687,-0.7969 -1.8745,-2.2157 -2.9262,-4.5855 -5.467,-12.9979 -7.2992,-25.3956 0.0688,-0.2795 0.1387,-0.5527 0.21,-0.8186 5.0758,1.0506 8.5201,2.2444 8.0152,4.2144 1.7983,2.023 12.5437,-7.9019 2.4228,-16.2815 -10.6038,-8.7794 -28.2832,-10.8686 -29.1735,-19.723 -12.2705,-1.0073 -17.7938,14.2743 -13.1561,21.6048 2.2051,3.4855 8.2638,5.5442 15.0158,7.0402 -7.3786,18.8022 -9.1784,42.5079 -20.7711,46.2193 1.5181,13.8647 12.2561,23.9312 24.602,11.6225 4.3648,-4.3509 6.6971,-13.1365 8.2822,-22.7209 0.2566,0.4508 0.5159,0.883 0.7785,1.2941 2.9722,4.6569 6.546,7.3429 10.5784,8.0873 4.3711,0.8068 8.5735,-0.6653 12.4669,-4.3807 1.3735,-1.3107 2.7375,-2.967 4.0817,-4.9625 0.7789,4.569 1.4901,9.0229 1.753,13.1546 -6.0521,5.1636 -9.9179,11.0065 -9.1625,19.976 l 0.0198,0.1508 c 1.0393,14.4784 27.2134,23.1456 34.1801,3.4241 2.368,-6.7027 0.5785,-17.3447 -2.0848,-28.5498 3.5654,-2.5382 7.1668,-5.3413 10.5693,-8.6213 2.3779,2.2981 5.4534,4.2002 9.3056,5.5149 1.9749,0.6737 4.0328,1.3033 6.3239,1.631 -11.7243,19.6509 -14.0099,65.9323 -27.6312,63.7618 -0.005,5.463 1.2842,10.5899 6.3368,16.0462 7.5518,8.1553 15.7766,3.9684 19.5822,-1.3986 8.9448,-12.6128 12.3182,-78.4528 19.9307,-82.3985 1.2541,7.6181 2.5548,15.2067 3.2513,21.9244 -4.7296,6.5508 -6.9262,13.0994 -2.9769,21.3514 -0.0949,0.0872 -0.192,0.1721 -0.2917,0.2534 2.6306,4.7878 5.7966,9.2104 13.234,9.185 5.7171,-0.0191 10.78,-3.978 12.3981,-9.1986 2.2863,-7.3764 1.0444,-19.406 -1.1856,-32.0464 4.5311,-5.3663 8.868,-11.4077 11.6787,-18.6591 2.5588,12.4587 5.1276,25.1268 9.6672,31.7051 1.8494,2.6806 3.7054,4.4918 5.4975,5.6443 l 0.01,0.009 c 0.0875,0.0581 0.1772,0.1104 0.2662,0.1644 l 0.1,0.0618 c 25.9796,16.5018 72.2353,-28.9051 34.3927,-53.8299 -0.8649,-0.5697 -1.8119,-1.0239 -2.8173,-1.3776 6.8016,-12.0796 3.1847,-28.5171 -10.4328,-33.9235 -6.4673,-2.5676 -20.7527,-0.032 -28.277,9.9367 -3.3263,-4.5726 -7.5154,-6.2326 -12.9541,-3.0288 -5.5321,3.2587 -7.6754,6.9804 -8.7426,11.2092 2.6894,1.0565 4.8113,3.9916 6.5887,8.0894 2.2359,13.5003 -1.6917,23.6201 -7.3172,31.9063 -4.1619,-20.1963 -8.7879,-38.6733 -3.4694,-38.8723 z m 84.11,19.6123 c 11.2308,-3.0542 21.2823,-14.2563 27.8349,-10.5604 6.6703,-7.9902 -1.2018,-19.2475 -8.5267,-19.6108 -3.7463,-0.1865 -8.3304,3.3524 -12.7309,7.5011 -1.7597,1.6589 -3.49,3.4157 -5.1261,5.0702 -1.339,1.3548 -2.6144,2.6408 -3.7908,3.7496 -0.6579,0.62 -1.2853,1.1849 -1.8752,1.6748 -0.9775,0.8123 -1.852,1.4191 -2.5956,1.7332 -0.855,0.3611 -1.5369,0.3357 -2.0013,-0.2089 -2.2735,0.2578 -1.9068,13.5668 8.8117,10.6512 z m -231.8146,2.0337 c -12.2101,-3.3204 -23.1383,-15.4997 -30.2628,-11.4816 -7.2517,-8.6867 1.307,-20.9267 9.2707,-21.3213 4.0733,-0.2026 9.0571,3.6448 13.8415,8.1553 1.9131,1.8039 3.7945,3.7136 5.573,5.5127 1.4559,1.4724 2.8427,2.8706 4.1214,4.0761 0.7156,0.6745 1.3978,1.2887 2.0388,1.8215 1.0628,0.883 2.0138,1.5428 2.8225,1.884 0.9293,0.3928 1.6707,0.3652 2.1757,-0.2269 2.4716,0.2803 2.073,14.7503 -9.5808,11.5802 z m 178.0667,-21.9306 c 2.2043,6.1069 3.9052,13.665 5.3508,21.4161 0.7083,-0.0202 1.3677,-0.1379 1.9634,-0.3736 11.0242,-4.3605 14.3498,-15.7134 9.5267,-23.1806 -4.5337,-7.0193 -13.79,-4.5594 -16.8409,2.1381 z m 7.5794,34.3658 c 1.6692,10.2034 3.1285,19.4645 4.9849,24.7179 6.496,12.4337 22.5849,-6.7505 19.8238,-16.5655 -3.7765,-13.4245 -14.8834,-16.0436 -24.8087,-8.1524 z M 327.71,358.1875 c 0.1946,3.3583 0.5781,6.9373 1.0691,10.6321 -26.7751,21.0623 -15.6965,-20.2643 -9.5098,-19.6344 3.8306,0.7267 5.452,3.5183 8.4407,9.0023 z m 11.8071,62.1665 c 0.8488,-2.81 -0.1541,-6.2117 -0.9653,-10.0706 -1.4722,4.0189 -3.3238,7.7357 -1.495,11.1956 0.2229,0.2651 1.6498,1.557 2.4603,-1.125 z m -72.5438,-6.2459 c 0.8065,-2.8225 -0.2475,-6.2088 -1.1169,-10.0551 -1.4114,4.0405 -3.2068,7.7849 -1.3261,11.2168 0.2269,0.2619 1.6729,1.5321 2.443,-1.1617 z"
     style="fill:#e30079;fillRule:evenodd"
     id="path2" />
  <g
     id="Layer1000">
    <path
       d="m 284.036,398.109 c 1.5637,9.6016 1.5482,15.9424 -5.0427,23.3571 3.6746,-6.8101 3.5595,-14.9955 2.3757,-22.4966 -0.2376,-0.7366 0.1666,-1.5262 0.9032,-1.7637 0.7366,-0.2376 1.5262,0.1666 1.7638,0.9032 z"
       style="fill:#ffffff;fillRule:evenodd"
       id="path4" />
  </g>
  <path
     d="m 282.7025,398.5392 c 1.2415,3.8471 1.6913,17.0759 -3.7092,22.9269"
     style="fill:none"
     id="path7" />
  <g
     id="Layer1001">
    <path
       d="m 272.7566,339.097 c -4.1222,0.6958 -8.5683,6.8325 -9.587,10.5222 -0.4416,-6.2835 3.0708,-12.276 9.3869,-13.3171 0.772,-0.0552 1.4424,0.5255 1.4975,1.2974 0.0552,0.7719 -0.5255,1.4423 -1.2974,1.4975 z"
       style="fill:#ffffff;fillRule:evenodd"
       id="path9" />
  </g>
  <path
     d="m 272.6566,337.6995 c -3.7438,0.2678 -9.7003,6.6943 -9.487,11.9197"
     style="fill:none"
     id="path12" />
  <g
     id="Layer1002">
    <path
       d="m 241.0496,333.929 c 5.0919,2.86 9.281,4.2372 8.376,10.7641 -1.2052,-4.619 -6.0124,-6.2224 -9.8676,-8.3921 -0.655,-0.4119 -0.8521,-1.2769 -0.4402,-1.9318 0.4119,-0.655 1.2768,-0.8521 1.9318,-0.4402 z"
       style="fill:#ffffff;fillRule:evenodd"
       id="path14" />
  </g>
  <path
     d="m 240.3038,335.115 c 4.0512,2.5478 9.1218,3.8253 9.1218,9.5781"
     style="fill:none"
     id="path17" />
  <g
     id="Layer1003">
    <path
       d="m 211.0542,398.8202 c 3.996,5.3324 15.0139,-4.4226 17.2542,-7.8681 -2.6831,7.5551 -13.6047,17.3867 -19.599,9.4031 -0.4241,-0.6476 -0.2428,-1.5159 0.4049,-1.9399 0.6476,-0.424 1.5158,-0.2427 1.9399,0.4049 z"
       style="fill:#ffffff;fillRule:evenodd"
       id="path19" />
  </g>
  <path
     d="m 209.8818,399.5877 c 4.6462,7.0987 17.3543,-4.5054 18.4266,-8.6356"
     style="fill:none"
     id="path22" />
  <g
     id="Layer1004">
    <path
       d="m 214.8976,322.6912 c -3.3999,3.8908 -4.9287,9.5012 -3.6276,14.5395 -4.0427,-6.1515 -2.946,-11.2551 1.7248,-16.5968 0.5682,-0.5255 1.4545,-0.4909 1.98,0.0773 0.5255,0.5682 0.4909,1.4544 -0.0772,1.98 z"
       style="fill:#ffffff;fillRule:evenodd"
       id="path24" />
  </g>
  <path
     d="m 213.9462,321.6626 c -4.6392,4.2883 -4.776,11.9931 -2.6762,15.5681"
     style="fill:none"
     id="path27" />
  <g
     id="Layer1005">
    <path
       d="m 172.5673,341.9732 c 4.6988,-9.5572 11.0205,-8.8522 17.8081,-1.5677 -6.5527,-4.0107 -11.6424,-4.6525 -15.214,2.6276 -0.2927,0.7164 -1.1106,1.0598 -1.827,0.7671 -0.7164,-0.2927 -1.0599,-1.1106 -0.7671,-1.827 z"
       style="fill:#ffffff;fillRule:evenodd"
       id="path29" />
  </g>
  <path
     d="m 173.8643,342.5031 c 5.1743,-12.6632 16.3717,-2.13 16.5111,-2.0976"
     style="fill:none"
     id="path32" />
  <g
     id="Layer1006">
    <path
       d="m 309.3488,345.0947 c -6.119,2.415 -10.9557,7.7184 -14.0316,13.4208 2.0208,-8.6768 5.1599,-12.9225 13.3344,-16.1348 0.7494,-0.1927 1.5129,0.2589 1.7056,1.0084 0.1927,0.7494 -0.2589,1.5129 -1.0084,1.7056 z"
       style="fill:#ffffff;fillRule:evenodd"
       id="path34" />
  </g>
  <path
     d="m 309.0002,343.7377 c -7.351,1.8888 -13.3826,11.8582 -13.683,14.7778"
     style="fill:none"
     id="path37" />
  <g
     id="Layer1007">
    <path
       d="m 299.803,462.6155 c 7.3768,-0.1809 14.8109,-31.668 15.7877,-36.0067 -0.609,6.8019 -4.3362,38.538 -16.0789,38.7936 -0.7697,-0.0806 -1.3284,-0.7694 -1.2478,-1.5391 0.0805,-0.7697 0.7693,-1.3283 1.539,-1.2478 z"
       style="fill:#ffffff;fillRule:evenodd"
       id="path39" />
  </g>
  <path
     d="m 299.6574,464.0089 c 7.3249,0.7639 15.8369,-28.7554 15.9333,-37.4001"
     style="fill:none"
     id="path42" />
  <g
     id="Layer1008">
    <path
       d="m 332.0083,343.7612 c 0.9639,-3.2928 2.1966,-7.2605 6.2353,-7.8559 -1.5869,1.3452 -2.9516,6.5898 -3.4948,8.4421 -0.1618,0.7569 -0.9065,1.239 -1.6633,1.0772 -0.7569,-0.1618 -1.239,-0.9065 -1.0772,-1.6634 z"
       style="fill:#ffffff;fillRule:evenodd"
       id="path44" />
  </g>
  <path
     d="m 333.3786,344.0543 c 0.6601,-3.0891 2.6187,-7.3716 4.865,-8.149"
     style="fill:none"
     id="path47" />
  <g
     id="Layer1009">
    <path
       d="m 360.493,334.7796 c 3.9391,-3.301 9.3377,-4.0824 12.2584,0.5877 -2.8564,-1.8197 -7.792,-0.6944 -10.1967,1.3106 -0.5241,0.5693 -1.4107,0.6057 -1.98,0.0817 -0.5693,-0.5241 -0.6057,-1.4107 -0.0817,-1.98 z"
       style="fill:#ffffff;fillRule:evenodd"
       id="path49" />
  </g>
  <path
     d="m 361.5239,335.7288 c 2.6838,-2.9156 8.8841,-3.1701 11.2275,-0.3615"
     style="fill:none"
     id="path52" />
  <g
     id="Layer1010">
    <path
       d="m 397.4284,325.8255 c 9.6998,0.751 17.2164,9.9239 15.4636,18.9287 -0.1732,-7.0631 -7.9346,-15.5431 -15.4636,-16.1264 -0.7738,0 -1.4012,-0.6274 -1.4012,-1.4011 0,-0.7738 0.6274,-1.4012 1.4012,-1.4012 z"
       style="fill:#ffffff;fillRule:evenodd"
       id="path54" />
  </g>
  <path
     d="m 397.4284,327.2267 c 9.5947,0 16.4455,12.038 15.4636,17.5275"
     style="fill:none"
     id="path57" />
  <g
     id="Layer1011">
    <path
       d="m 410.8757,360.5893 c 9.3563,4.2777 14.0401,10.4758 15.1639,20.7666 -2.6022,-7.7651 -8.6117,-14.6998 -16.0598,-18.1115 -0.7333,-0.2474 -1.1272,-1.0422 -0.8797,-1.7755 0.2475,-0.7333 1.0423,-1.1271 1.7756,-0.8796 z"
       style="fill:#ffffff;fillRule:evenodd"
       id="path59" />
  </g>
  <path
     d="m 410.4277,361.9169 c 8.2947,2.7975 14.8514,13.2001 15.6119,19.439"
     style="fill:none"
     id="path62" />
  <g
     id="Layer1012">
    <path
       d="m 454.9642,339.5722 c -3.9677,-2.6383 -12.5794,4.5803 -15.1342,6.329 3.469,-4.299 9.8738,-13.1836 16.8604,-8.5363 0.6094,0.4766 0.7171,1.3574 0.2405,1.9667 -0.4766,0.6094 -1.3574,0.7172 -1.9667,0.2406 z"
       style="fill:#ffffff;fillRule:evenodd"
       id="path64" />
  </g>
  <path
     d="m 455.8273,338.4685 c -2.6085,-2.0403 -8.0803,-1.1735 -15.9973,7.4327"
     style="fill:none"
     id="path67" />
</svg>
